<svg width="42" height="42" viewBox="0 0 42 42" fill="none" xmlns="http://www.w3.org/2000/svg">
<path fill-rule="evenodd" clip-rule="evenodd" d="M21 41C32.0457 41 41 32.0457 41 21C41 9.9543 32.0457 1 21 1C9.9543 1 1 9.9543 1 21C1 32.0457 9.9543 41 21 41Z" stroke="#5E5E5E"/>
<path fill-rule="evenodd" clip-rule="evenodd" d="M25.5146 15.1582C24.9173 15.1582 24.4321 15.6426 24.4321 16.2415C24.4321 16.8395 24.9173 17.3247 25.5146 17.3247C26.1127 17.3247 26.5978 16.8395 26.5978 16.2415C26.5978 15.6426 26.1127 15.1582 25.5146 15.1582ZM20.9999 23.9783C19.3587 23.9783 18.0226 22.6422 18.0226 20.9993C18.0226 19.3572 19.3587 18.022 20.9999 18.022C22.642 18.022 23.9781 19.3572 23.9781 20.9993C23.9781 22.6422 22.642 23.9783 20.9999 23.9783ZM20.9999 16.3452C18.4349 16.3452 16.3478 18.4332 16.3478 20.999C16.3478 23.5656 18.4349 25.6535 20.9999 25.6535C23.5657 25.6535 25.6528 23.5656 25.6528 20.999C25.6528 18.4332 23.5657 16.3452 20.9999 16.3452ZM28.3045 23.5421C28.2963 24.1026 28.2742 24.7006 28.1687 25.2668C27.8823 26.8074 27.0077 27.7442 25.4957 28.1312C24.8011 28.3088 24.0615 28.3145 23.2793 28.3194H23.2711C22.8907 28.3219 22.5004 28.3227 22.0782 28.3227C21.0162 28.3227 19.9346 28.3153 18.8873 28.3071L18.1845 28.3022C17.6675 28.2981 17.0604 28.2744 16.4746 28.1255C15.3291 27.8342 14.5502 27.1928 14.092 26.1643C13.8024 25.5106 13.737 24.7882 13.7116 24.1672C13.7059 24.033 13.6961 23.9062 13.6854 23.7835L13.6756 23.6607V18.3991C13.6862 18.3459 13.6993 18.2714 13.7018 18.1855C13.7198 17.5695 13.7451 17.0164 13.8777 16.4878C14.1714 15.3211 14.8259 14.5324 15.8798 14.0767C16.5204 13.7993 17.2289 13.7371 17.8376 13.7118C17.9718 13.7061 18.0994 13.6954 18.2222 13.6856L18.3441 13.6758H23.609C23.6524 13.6848 23.7072 13.693 23.7702 13.6987C23.9486 13.7142 24.1253 13.7249 24.2955 13.7347C24.6342 13.7551 24.9533 13.774 25.2486 13.8288C26.0226 13.9744 26.6542 14.269 27.1239 14.7034C27.5951 15.1411 27.933 15.7482 28.1278 16.5091C28.302 17.1906 28.3086 17.918 28.316 18.6863V18.7525C28.3307 20.3619 28.3274 21.9737 28.3045 23.5421ZM29.9916 18.7376L29.9908 18.6714C29.9834 17.836 29.9752 16.972 29.751 16.0933C29.202 13.9456 27.7514 12.5932 25.5571 12.1825C25.1578 12.1072 24.77 12.0843 24.3945 12.0622C24.2325 12.0532 24.0787 12.0434 23.9273 12.0303C23.9191 12.0286 23.9118 12.027 23.9036 12.0254C23.8815 12.0221 23.8594 12.0172 23.8357 12.0131L23.7637 12H18.2811L18.2508 12.0025C18.1952 12.0065 18.1387 12.0106 18.0839 12.0155C17.9726 12.0245 17.8679 12.0335 17.7697 12.0376C17.0514 12.0671 16.1121 12.1505 15.2146 12.5384C13.6715 13.206 12.6758 14.3972 12.2536 16.0786C12.0835 16.756 12.0491 17.4187 12.0286 18.0929C12.0229 18.1183 12.018 18.1428 12.0131 18.1674L12 18.2402V23.7236L12.0025 23.7538C12.0065 23.8103 12.0115 23.8659 12.0164 23.9216C12.0254 24.032 12.0335 24.1359 12.0376 24.2349C12.0671 24.9688 12.1546 25.9277 12.5621 26.8449C13.2322 28.352 14.4103 29.3297 16.0622 29.7486C16.8264 29.9433 17.5906 29.9728 18.1715 29.9777L18.8751 29.9826C19.9248 29.9899 21.0097 29.9989 22.0782 29.9989C22.5045 29.9989 22.898 29.9973 23.2818 29.9949H23.2899C24.1392 29.9891 25.0179 29.9834 25.9105 29.7543C28.0582 29.2045 29.409 27.7588 29.8157 25.5735C29.9441 24.8813 29.9703 24.1703 29.9793 23.5657C30.0014 21.9841 30.0063 20.3601 29.9916 18.7376Z" fill="#9A9A9A"/>
</svg>
