<svg width="42" height="42" viewBox="0 0 42 42" fill="none" xmlns="http://www.w3.org/2000/svg">
<path fill-rule="evenodd" clip-rule="evenodd" d="M21 41C32.0457 41 41 32.0457 41 21C41 9.9543 32.0457 1 21 1C9.9543 1 1 9.9543 1 21C1 32.0457 9.9543 41 21 41Z" stroke="#5E5E5E"/>
<path fill-rule="evenodd" clip-rule="evenodd" d="M17.0891 22.4183C17.3215 22.5152 17.5315 22.4226 17.5992 22.1594C17.6455 21.9785 17.757 21.5199 17.8075 21.3287C17.8761 21.069 17.8495 20.979 17.6601 20.7535C17.2495 20.2597 16.988 19.6236 16.988 18.7227C16.988 16.1071 18.916 13.7651 22.0073 13.7651C24.7462 13.7651 26.2499 15.4633 26.2499 17.7317C26.2499 20.7166 24.9485 23.2353 23.018 23.2353C21.9507 23.2353 21.1526 22.3386 21.408 21.2413C21.7149 19.9305 22.3082 18.5152 22.3082 17.5688C22.3082 16.7218 21.8598 16.0146 20.9331 16.0146C19.8427 16.0146 18.9666 17.159 18.9666 18.6935C18.9666 19.6699 19.2923 20.3309 19.2923 20.3309C19.2923 20.3309 18.177 25.1307 17.9807 25.9717C17.5915 27.645 17.9224 29.6965 17.9498 29.9039C17.967 30.0265 18.1221 30.0557 18.1924 29.9631C18.2927 29.8302 19.5924 28.2023 20.033 26.5769C20.1581 26.1157 20.7505 23.7316 20.7505 23.7316C21.1046 24.4174 22.1401 25.0201 23.2409 25.0201C26.519 25.0201 28.7428 21.9888 28.7428 17.9288C28.7428 14.8581 26.1804 12 22.2876 12C17.4432 12 15 15.5251 15 18.4646C15 20.2451 15.6652 21.8294 17.0891 22.4183Z" fill="#9A9A9A"/>
</svg>
