<svg width="42" height="42" viewBox="0 0 42 42" fill="none" xmlns="http://www.w3.org/2000/svg">
<path fill-rule="evenodd" clip-rule="evenodd" d="M21 41C32.0457 41 41 32.0457 41 21C41 9.9543 32.0457 1 21 1C9.9543 1 1 9.9543 1 21C1 32.0457 9.9543 41 21 41Z" stroke="#5E5E5E"/>
<path fill-rule="evenodd" clip-rule="evenodd" d="M30.059 20.2601V18.29H28.2659V20.2601H26.325V22.0799H28.2659V24.0491H30.059V22.0799H32V20.2601H30.059ZM24.0947 20.2601H17.8807V22.1316H22.2879C22.0697 24.7553 19.9178 25.8769 17.8871 25.8769C15.2892 25.8769 13.021 23.8018 13.021 20.8912C13.021 18.0581 15.1834 15.8771 17.8928 15.8771C19.9841 15.8771 21.2164 17.2306 21.2164 17.2306L22.5077 15.8715C22.5077 15.8715 20.8503 14 17.8273 14C13.9785 14 11 17.2977 11 20.858C11 24.3497 13.8016 27.7517 17.9251 27.7517C21.5525 27.7517 24.207 25.2297 24.207 21.5013C24.207 20.7142 24.0947 20.2593 24.0947 20.2593V20.2601Z" fill="#9A9A9A"/>
</svg>
