<svg width="42" height="42" viewBox="0 0 42 42" fill="none" xmlns="http://www.w3.org/2000/svg">
<path fill-rule="evenodd" clip-rule="evenodd" d="M21 41C32.0457 41 41 32.0457 41 21C41 9.9543 32.0457 1 21 1C9.9543 1 1 9.9543 1 21C1 32.0457 9.9543 41 21 41Z" stroke="#5E5E5E"/>
<path fill-rule="evenodd" clip-rule="evenodd" d="M28.5776 19.1821C26.0159 17.6833 22.5108 17 19.1804 17C17.2164 17 15.4118 17.2217 13.7954 17.6966C13.3829 17.8165 13 18.1629 13 18.7767C13 19.381 13.464 19.8568 14.0694 19.8568C14.2794 19.8568 14.4866 19.7759 14.6528 19.7331C16.0831 19.3458 17.6451 19.1907 19.1852 19.1907C22.2664 19.1907 25.4525 19.8673 27.5063 21.092C27.7231 21.2119 27.8606 21.2681 28.0916 21.2681C28.6645 21.2681 29.161 20.8256 29.161 20.2089C29.161 19.6703 28.9213 19.3772 28.5776 19.1821ZM25.7036 26.282C23.7988 25.1457 21.5874 24.5767 19.104 24.5767C17.6546 24.5767 16.2577 24.7594 14.857 25.0782C14.5152 25.1419 14.2402 25.3798 14.2402 25.8537C14.2402 26.2239 14.5295 26.5656 14.9582 26.5656C15.0976 26.5656 15.3316 26.4932 15.5178 26.4523C16.6597 26.2163 17.8819 26.0612 19.0964 26.0612C21.2724 26.0612 23.3223 26.5817 24.9665 27.5733C25.1393 27.678 25.2644 27.7418 25.4468 27.7418C25.8201 27.7418 26.1524 27.442 26.1524 27.0357C26.1524 26.617 25.9872 26.4476 25.7036 26.282ZM27.0499 22.9689C24.7899 21.6233 21.9188 20.8857 18.9493 20.8857C17.0531 20.8857 15.7498 21.1551 14.4742 21.5043C14.0035 21.6366 13.7695 21.9677 13.7695 22.4474C13.7695 22.9375 14.1677 23.3352 14.6556 23.3352C14.8618 23.3352 14.986 23.2686 15.2084 23.2087C16.2348 22.9365 17.4751 22.7367 18.9102 22.7367C21.7106 22.7367 24.2695 23.4618 26.1151 24.5514C26.2832 24.6494 26.4369 24.7484 26.6832 24.7484C27.1769 24.7484 27.5674 24.3535 27.5674 23.8634C27.5674 23.4618 27.428 23.1858 27.0499 22.9689Z" fill="#9A9A9A"/>
</svg>
