<svg width="42" height="42" viewBox="0 0 42 42" fill="none" xmlns="http://www.w3.org/2000/svg">
<path fill-rule="evenodd" clip-rule="evenodd" d="M21 41C32.0457 41 41 32.0457 41 21C41 9.9543 32.0457 1 21 1C9.9543 1 1 9.9543 1 21C1 32.0457 9.9543 41 21 41Z" stroke="#5E5E5E"/>
<path fill-rule="evenodd" clip-rule="evenodd" d="M25.9966 25.9251V25.8105C25.935 25.8481 25.8922 25.8746 25.8495 25.902C25.2568 26.2638 24.6221 26.5204 23.9199 26.5879C23.3435 26.6461 22.7893 26.5811 22.2838 26.2706C21.9408 26.0585 21.7304 25.7583 21.6851 25.3606C21.6483 25.0253 21.615 24.6943 21.6115 24.359C21.6013 22.8272 21.6064 21.2963 21.603 19.7653C21.603 19.7302 21.609 19.6995 21.6167 19.6575H25.4518V17.1045H21.5978V13H19.3014C19.2792 13.1317 19.2638 13.2583 19.2424 13.3823C19.221 13.5089 19.1945 13.6321 19.1688 13.7561C18.8019 15.5051 17.8004 16.7102 16.0984 17.3089C16.0188 17.338 16 17.3774 16 17.4569C16.0026 18.1471 16.0026 18.8373 16.0026 19.5258C16.0026 19.5677 16.006 19.6079 16.0086 19.6593H17.7841V19.844C17.7841 21.6521 17.7824 23.4601 17.7841 25.2657C17.7841 25.5744 17.8029 25.8823 17.8235 26.1911C17.8774 26.8548 18.1134 27.4372 18.5915 27.9136C18.8601 28.1847 19.1551 28.4148 19.4853 28.5996C20.2431 29.0272 21.0684 29.1957 21.928 29.2367C23.3247 29.306 24.6427 29.0092 25.8999 28.4063C25.9769 28.3695 26 28.3284 26 28.2472C25.9932 27.4723 25.9966 26.6965 25.9966 25.9251Z" fill="#9A9A9A"/>
</svg>
