<svg width="42" height="42" viewBox="0 0 42 42" fill="none" xmlns="http://www.w3.org/2000/svg">
<path fill-rule="evenodd" clip-rule="evenodd" d="M21 41C32.0457 41 41 32.0457 41 21C41 9.9543 32.0457 1 21 1C9.9543 1 1 9.9543 1 21C1 32.0457 9.9543 41 21 41Z" stroke="#5E5E5E"/>
<path fill-rule="evenodd" clip-rule="evenodd" d="M27.9084 17.1689C28.6244 16.7403 29.1742 16.0617 29.4332 15.2532C28.7631 15.6498 28.021 15.938 27.2315 16.0934C26.599 15.4203 25.6976 15 24.7007 15C22.7858 15 21.2334 16.5502 21.2334 18.4626C21.2334 18.7339 21.2639 18.9983 21.3231 19.2517C18.4416 19.1075 15.886 17.7288 14.1766 15.6337C13.8781 16.1452 13.7069 16.7399 13.7069 17.3745C13.7069 18.5758 14.3189 19.6355 15.2492 20.2567C14.6812 20.2387 14.1463 20.0833 13.6788 19.8239C13.6784 19.8382 13.6784 19.8525 13.6784 19.8672C13.6784 21.5451 14.8739 22.9445 16.4597 23.2626C16.1691 23.3419 15.8627 23.3843 15.5462 23.3843C15.323 23.3843 15.1061 23.3626 14.8939 23.3221C15.3351 24.6977 16.616 25.699 18.133 25.7267C16.9461 26.6555 15.4514 27.2092 13.827 27.2092C13.5472 27.2092 13.2713 27.1927 13 27.1602C14.5342 28.143 16.3563 28.7165 18.315 28.7165C24.6924 28.7165 28.1801 23.4397 28.1801 18.8637C28.1801 18.714 28.1768 18.5644 28.17 18.4156C28.8472 17.928 29.4349 17.3182 29.9 16.6234C29.2778 16.899 28.6099 17.085 27.9084 17.1689Z" fill="#9A9A9A"/>
</svg>
