<svg width="28" height="119" viewBox="0 0 28 119" fill="none" xmlns="http://www.w3.org/2000/svg">
<path d="M9.2 109.158H19V110.18H14.478V116.312H19V117.348H9.2V116.312H13.568V110.18H9.2V109.158ZM16.382 97.758V103.218L19 104.394V105.472L9.2 100.992V99.97L19 95.49V96.582L16.382 97.758ZM15.542 98.136L10.278 100.488L15.542 102.84V98.136ZM13.946 85.982C14.086 85.3007 14.3613 84.7827 14.772 84.428C15.1733 84.0733 15.7007 83.896 16.354 83.896C17.2033 83.896 17.8567 84.1993 18.314 84.806C18.7713 85.4033 19 86.2853 19 87.452V91.792H9.2V87.718C9.2 86.6727 9.41467 85.856 9.844 85.268C10.2733 84.68 10.894 84.386 11.706 84.386C12.2567 84.386 12.7233 84.526 13.106 84.806C13.4793 85.086 13.7593 85.478 13.946 85.982ZM13.638 90.77V87.774C13.638 87.018 13.484 86.4393 13.176 86.038C12.868 85.6273 12.42 85.422 11.832 85.422C11.244 85.422 10.796 85.6273 10.488 86.038C10.18 86.4393 10.026 87.018 10.026 87.774V90.77H13.638ZM18.174 87.452C18.174 85.7627 17.544 84.918 16.284 84.918C15.052 84.918 14.436 85.7627 14.436 87.452V90.77H18.174V87.452ZM18.104 72.5557H19L19 79.4857H9.2V72.7657H10.096V78.4497H13.582L13.582 73.3817H14.464L14.464 78.4497H18.104L18.104 72.5557ZM9.2 64.7691C9.2 63.5185 9.49867 62.5385 10.096 61.8291C10.6933 61.1198 11.5147 60.7651 12.56 60.7651C13.6053 60.7651 14.4267 61.1198 15.024 61.8291C15.612 62.5385 15.906 63.5185 15.906 64.7691V67.4011H19V68.4371H9.2V64.7691ZM14.996 64.7971C14.996 63.8265 14.786 63.0845 14.366 62.5711C13.9367 62.0578 13.3347 61.8011 12.56 61.8011C11.7667 61.8011 11.16 62.0578 10.74 62.5711C10.3107 63.0845 10.096 63.8265 10.096 64.7971V67.4011H14.996V64.7971ZM9.2 56.9352L13.078 54.1492L9.2 51.3772V50.1592L13.904 53.5052L19 49.8932V51.1112L14.786 54.1492L19 57.1872V58.3772L13.946 54.7792L9.2 58.1252V56.9352Z" fill="#1A1A1A"/>
<path d="M13.5034 26.5C6.32173 26.5 0.500031 20.6796 0.500031 13.5C0.500031 6.32042 6.32173 0.5 13.5034 0.5C20.6851 0.5 26.5068 6.32042 26.5068 13.5C26.5068 20.6796 20.6851 26.5 13.5034 26.5Z" stroke="#1A1A1A"/>
<path d="M13.4141 8.8291L16.4281 11.8999M13.4141 8.8291L10.4032 11.7828M13.4141 8.8291L13.3209 18.6825" stroke="#1A1A1A"/>
</svg>
