<svg width="150" height="46" viewBox="0 0 150 46" fill="none" xmlns="http://www.w3.org/2000/svg">
<rect width="150" height="46" fill="white"/>
<path d="M38.484 19.6V28H37.608V20.368H32.292V28H31.416V19.6H38.484ZM48.8183 27.232V28H42.8783V19.6H48.6383V20.368H43.7663V23.356H48.1103V24.112H43.7663V27.232H48.8183ZM55.4925 19.6C56.5645 19.6 57.4045 19.856 58.0125 20.368C58.6205 20.88 58.9245 21.584 58.9245 22.48C58.9245 23.376 58.6205 24.08 58.0125 24.592C57.4045 25.096 56.5645 25.348 55.4925 25.348H53.2365V28H52.3485V19.6H55.4925ZM55.4685 24.568C56.3005 24.568 56.9365 24.388 57.3765 24.028C57.8165 23.66 58.0365 23.144 58.0365 22.48C58.0365 21.8 57.8165 21.28 57.3765 20.92C56.9365 20.552 56.3005 20.368 55.4685 20.368H53.2365V24.568H55.4685ZM68.2508 27.232V28H62.3108V19.6H68.0708V20.368H63.1988V23.356H67.5428V24.112H63.1988V27.232H68.2508ZM71.781 19.6H72.657V26.56L78.033 19.6H78.837V28H77.961V21.052L72.585 28H71.781V19.6ZM75.285 18.988C74.685 18.988 74.209 18.852 73.857 18.58C73.513 18.308 73.337 17.928 73.329 17.44H73.989C73.997 17.76 74.117 18.012 74.349 18.196C74.581 18.38 74.893 18.472 75.285 18.472C75.669 18.472 75.977 18.38 76.209 18.196C76.449 18.012 76.573 17.76 76.581 17.44H77.241C77.233 17.928 77.053 18.308 76.701 18.58C76.349 18.852 75.877 18.988 75.285 18.988ZM88.7276 20.368H85.7756V28H84.8996V20.368H81.9476V19.6H88.7276V20.368ZM91.8463 19.6H92.7223V26.56L98.0983 19.6H98.9023V28H98.0263V21.052L92.6503 28H91.8463V19.6Z" fill="#333333"/>
<path d="M115 19L120 23.5L115.357 28" stroke="#D90000"/>
</svg>
